<svg xmlns="http://www.w3.org/2000/svg" version="1.1" xmlns:xlink="http://www.w3.org/1999/xlink" xmlns:svgjs="http://svgjs.dev/svgjs" width="1000" height="1000" viewBox="0 0 1000 1000"><rect width="1000" height="1000" fill="#000000"></rect><g transform="matrix(0.7,0,0,0.7,149.57575757575756,310.57113092261227)"><svg viewBox="0 0 396 215" data-background-color="#6936f5" preserveAspectRatio="xMidYMid meet" height="542" width="1000" xmlns="http://www.w3.org/2000/svg" xmlns:xlink="http://www.w3.org/1999/xlink"><g id="tight-bounds" transform="matrix(1,0,0,1,0.2400000000000091,-0.15364562035222207)"><svg viewBox="0 0 395.52 215.30729124070444" height="215.30729124070444" width="395.52"><g><svg viewBox="0 0 395.52 215.30729124070444" height="215.30729124070444" width="395.52"><g transform="matrix(1,0,0,1,0,133.06854368688843)"><svg viewBox="0 0 395.52 82.23874755381603" height="82.23874755381603" width="395.52"><g id="textblocktransform"><svg viewBox="0 0 395.52 82.23874755381603" height="82.23874755381603" width="395.52" id="textblock"><g><svg viewBox="0 0 395.52 82.23874755381603" height="82.23874755381603" width="395.52"><g transform="matrix(1,0,0,1,0,0)"><svg width="395.52" viewBox="2.2 -33.1 204.38000000000002 42.50000000000001" height="82.23874755381603" data-palette-color="#ffffff"><path d="M17.3-6.4L17.3-6.4Q20.25-6.4 21.93-8.97 23.6-11.55 23.6-16.4L23.6-16.4Q23.6-20.85 21.93-23.28 20.25-25.7 17.3-25.7L17.3-25.7Q14.35-25.7 12.68-23.28 11-20.85 11-16.4L11-16.4Q11-11.55 12.68-8.97 14.35-6.4 17.3-6.4ZM28.3 9.4L28.3 9.4Q25.55 9.4 23.23 8.72 20.9 8.05 19.03 6.8 17.15 5.55 15.75 3.88 14.35 2.2 13.4 0.15L13.4 0.15Q10.85-0.45 8.78-1.83 6.7-3.2 5.25-5.3 3.8-7.4 3-10.2 2.2-13 2.2-16.4L2.2-16.4Q2.2-20.4 3.3-23.53 4.4-26.65 6.38-28.78 8.35-30.9 11.13-32 13.9-33.1 17.3-33.1L17.3-33.1Q20.65-33.1 23.45-32 26.25-30.9 28.23-28.75 30.2-26.6 31.3-23.5 32.4-20.4 32.4-16.4L32.4-16.4Q32.4-10 29.73-5.85 27.05-1.7 22.45-0.2L22.45-0.2Q23.6 1.4 25.53 2 27.45 2.6 29.3 2.6L29.3 2.6Q30.35 2.6 31.3 2.43 32.25 2.25 33 2L33 2 34.5 8.2Q33.5 8.75 31.95 9.08 30.4 9.4 28.3 9.4ZM45.1 0.6L45.1 0.6Q43.05 0.6 41.57-0.13 40.1-0.85 39.15-2.18 38.2-3.5 37.75-5.38 37.3-7.25 37.3-9.6L37.3-9.6 37.3-25 45.9-25 45.9-10.7Q45.9-8.3 46.5-7.5 47.1-6.7 48.4-6.7L48.4-6.7Q49.6-6.7 50.37-7.2 51.15-7.7 52-8.9L52-8.9 52-25 60.6-25 60.6 0 53.6 0 53-3.3 52.8-3.3Q51.3-1.5 49.47-0.45 47.65 0.6 45.1 0.6ZM72.9 0.6L72.9 0.6Q71.15 0.6 69.75-0.03 68.34-0.65 67.37-1.7 66.4-2.75 65.9-4.15 65.4-5.55 65.4-7.1L65.4-7.1Q65.4-11 68.59-13.23 71.8-15.45 79-16.2L79-16.2Q78.7-18.8 75.5-18.8L75.5-18.8Q74.15-18.8 72.65-18.28 71.15-17.75 69.2-16.7L69.2-16.7 66.2-22.3Q68.84-23.9 71.55-24.75 74.25-25.6 77.2-25.6L77.2-25.6Q82.05-25.6 84.82-22.83 87.59-20.05 87.59-13.9L87.59-13.9 87.59 0 80.59 0 80-2.4 79.8-2.4Q78.3-1.05 76.62-0.23 74.95 0.6 72.9 0.6ZM75.9-6L75.9-6Q76.95-6 77.62-6.48 78.3-6.95 79-7.7L79-7.7 79-11.1Q75.9-10.65 74.75-9.75 73.59-8.85 73.59-7.8L73.59-7.8Q73.59-6 75.9-6ZM101.79 0L93.19 0 93.19-25 100.19-25 100.79-22 100.99-22Q102.49-23.45 104.42-24.53 106.34-25.6 108.89-25.6L108.89-25.6Q112.99-25.6 114.84-22.83 116.69-20.05 116.69-15.4L116.69-15.4 116.69 0 108.09 0 108.09-14.3Q108.09-16.7 107.49-17.5 106.89-18.3 105.59-18.3L105.59-18.3Q104.39-18.3 103.59-17.8 102.79-17.3 101.79-16.4L101.79-16.4 101.79 0ZM132.59 0.6L132.59 0.6Q130.14 0.6 128.42-0.13 126.69-0.85 125.57-2.2 124.44-3.55 123.92-5.43 123.39-7.3 123.39-9.6L123.39-9.6 123.39-18.3 120.09-18.3 120.09-24.7 123.89-25 124.89-31.5 131.99-31.5 131.99-25 137.69-25 137.69-18.3 131.99-18.3 131.99-9.75Q131.99-7.65 132.89-6.88 133.79-6.1 134.99-6.1L134.99-6.1Q135.59-6.1 136.17-6.23 136.74-6.35 137.19-6.5L137.19-6.5 138.49-0.3Q137.49 0 136.09 0.3 134.69 0.6 132.59 0.6ZM147.79 0.6L147.79 0.6Q146.04 0.6 144.64-0.03 143.24-0.65 142.26-1.7 141.29-2.75 140.79-4.15 140.29-5.55 140.29-7.1L140.29-7.1Q140.29-11 143.49-13.23 146.69-15.45 153.89-16.2L153.89-16.2Q153.59-18.8 150.39-18.8L150.39-18.8Q149.04-18.8 147.54-18.28 146.04-17.75 144.09-16.7L144.09-16.7 141.09-22.3Q143.74-23.9 146.44-24.75 149.14-25.6 152.09-25.6L152.09-25.6Q156.94-25.6 159.71-22.83 162.49-20.05 162.49-13.9L162.49-13.9 162.49 0 155.49 0 154.89-2.4 154.69-2.4Q153.19-1.05 151.51-0.23 149.84 0.6 147.79 0.6ZM150.79-6L150.79-6Q151.84-6 152.51-6.48 153.19-6.95 153.89-7.7L153.89-7.7 153.89-11.1Q150.79-10.65 149.64-9.75 148.49-8.85 148.49-7.8L148.49-7.8Q148.49-6 150.79-6ZM177.19-15.8L177.19-15.8 176.64-13.55 182.64-13.55 182.09-15.8Q181.49-18.15 180.89-20.9 180.29-23.65 179.69-26.1L179.69-26.1 179.49-26.1Q178.94-23.6 178.36-20.88 177.79-18.15 177.19-15.8ZM173.49 0L164.69 0 174.59-32.5 184.99-32.5 194.89 0 185.79 0 184.19-6.9 175.09-6.9 173.49 0ZM206.58 0L197.98 0 197.98-32.5 206.58-32.5 206.58 0Z" opacity="1" transform="matrix(1,0,0,1,0,0)" fill="#ffffff" class="wordmark-text-0" data-fill-palette-color="primary" id="text-0"></path></svg></g></svg></g></svg></g></svg></g><g transform="matrix(1,0,0,1,140.93302544031312,0)"><svg viewBox="0 0 113.65394911937375 113.65394911937376" height="113.65394911937376" width="113.65394911937375"><g><svg></svg></g><g id="icon-0"><svg viewBox="0 0 113.65394911937375 113.65394911937376" height="113.65394911937376" width="113.65394911937375"><g><path transform="scale(1.13654,1.13654)" d="M30 100c-16.569 0-30-13.431-30-30v-40c0-16.569 13.431-30 30-30h40c16.569 0 30 13.431 30 30v40c0 16.569-13.431 30-30 30z" fill="#ffffff" fill-rule="nonzero" stroke="none" stroke-width="1" stroke-linecap="butt" stroke-linejoin="miter" stroke-miterlimit="10" stroke-dasharray="" stroke-dashoffset="0" font-family="none" font-weight="none" font-size="none" text-anchor="none" style="mix-blend-mode: normal" data-fill-palette-color="accent"></path></g><g transform="matrix(1,0,0,1,22.730789823874744,27.85829498324338)"><svg viewBox="0 0 68.19236947162426 57.937359152887005" height="57.937359152887005" width="68.19236947162426"><g><svg xmlns="http://www.w3.org/2000/svg" xmlns:xlink="http://www.w3.org/1999/xlink" version="1.1" x="0" y="0" viewBox="8.610000000000001 15.230397060497339 81.86000000000001 69.54960293950268" enable-background="new 0 0 100 100" xml:space="preserve" height="57.937359152887005" width="68.19236947162426" class="icon-z$-0" data-fill-palette-color="quaternary" id="z$-0"><g fill="#6936f5" data-fill-palette-color="quaternary"><path d="M46.19 27.75c-0.15 0-0.31 0.01-0.46 0.01-0.35 0.01-0.69 0.02-1.04 0.03-0.44 0.02-0.88 0.03-1.32 0.05-0.45 0.02-0.89 0.04-1.33 0.07-0.45 0.02-0.89 0.05-1.32 0.07-0.51 0.03-1.02 0.07-1.53 0.11-0.58 0.04-1.16 0.09-1.73 0.14-2.08 0.18-4.08 0.41-6 0.69-1.13 0.16-2.23 0.34-3.3 0.53-0.37 0.07-0.74 0.13-1.1 0.21-0.19 0.03-0.37 0.06-0.56 0.1-0.15 0.03-0.31 0.06-0.46 0.09v0.01c-0.9 0.17-1.77 0.36-2.61 0.57-0.02 0.01-0.05 0.01-0.07 0.02 0.67-0.89 1.38-1.75 2.15-2.57 0.26-0.3 0.54-0.59 0.84-0.88 3.08-3.11 6.79-5.61 10.93-7.29 0.01 0.01 0.02 0.01 0.03 0.03 0.21 0.14 0.42 0.3 0.63 0.46 0.89 0.67 1.81 1.41 2.75 2.23 0.47 0.4 0.95 0.83 1.43 1.28 0.25 0.22 0.49 0.45 0.73 0.68 0.49 0.46 0.98 0.94 1.47 1.44 0.21 0.2 0.42 0.41 0.62 0.62C45.36 26.87 45.77 27.3 46.19 27.75z" fill="#000000" data-fill-palette-color="quaternary"></path><path d="M26.5 29.76c-0.15 0.03-0.31 0.06-0.46 0.1v-0.01C26.19 29.82 26.35 29.79 26.5 29.76z" fill="#000000" data-fill-palette-color="quaternary"></path><path d="M60.67 19.28c-0.43 0.32-0.86 0.65-1.29 0.99-0.22 0.18-0.45 0.35-0.67 0.54-2.29 1.88-4.73 4.21-7.22 6.92-0.65-0.01-1.29-0.02-1.95-0.02-0.66 0-1.32 0.01-1.97 0.01-2.25-2.44-4.44-4.58-6.53-6.35-0.46-0.39-0.9-0.75-1.34-1.1-0.44-0.34-0.87-0.67-1.29-0.99 3.47-1.26 7.22-1.95 11.13-1.95C53.45 17.33 57.2 18.02 60.67 19.28z" fill="#000000" data-fill-palette-color="quaternary"></path><path d="M75.71 30.45c-0.5-0.12-1.01-0.24-1.53-0.35-0.37-0.09-0.75-0.17-1.14-0.24-0.15-0.04-0.3-0.07-0.45-0.1-0.19-0.04-0.38-0.07-0.57-0.11-0.36-0.07-0.73-0.13-1.1-0.2-0.56-0.1-1.14-0.2-1.72-0.29-0.53-0.09-1.06-0.17-1.61-0.25-0.67-0.09-1.35-0.18-2.04-0.27-0.59-0.07-1.19-0.14-1.8-0.2-0.63-0.07-1.26-0.13-1.91-0.19-0.64-0.06-1.29-0.11-1.95-0.16-0.61-0.05-1.22-0.09-1.84-0.13-1.09-0.06-2.2-0.12-3.33-0.15-0.45-0.02-0.9-0.04-1.36-0.05-0.16 0-0.31-0.01-0.47-0.01 0.12-0.14 0.25-0.26 0.37-0.39 0.25-0.27 0.5-0.52 0.75-0.78s0.5-0.51 0.75-0.75c0.49-0.5 0.98-0.98 1.47-1.44 0.24-0.23 0.48-0.46 0.73-0.68 0.48-0.45 0.96-0.88 1.43-1.28 0.94-0.82 1.86-1.56 2.75-2.23 0.21-0.16 0.42-0.32 0.63-0.46 0.01-0.02 0.02-0.02 0.03-0.03 4.14 1.68 7.85 4.18 10.93 7.29 0.29 0.29 0.57 0.58 0.84 0.88C74.33 28.7 75.04 29.56 75.71 30.45z" fill="#000000" data-fill-palette-color="quaternary"></path><path d="M49.54 29.91c-0.35-0.41-0.71-0.8-1.06-1.19 0.35-0.01 0.71-0.01 1.06-0.01 0.35 0 0.7 0 1.05 0.01-0.1 0.12-0.21 0.24-0.32 0.36C50.03 29.35 49.78 29.63 49.54 29.91z" fill="#000000" data-fill-palette-color="quaternary"></path><path d="M48.86 30.7c-0.39 0.46-0.79 0.93-1.18 1.41-0.4 0.48-0.79 0.96-1.19 1.46-1.58 1.97-3.17 4.08-4.73 6.29-0.27 0.38-0.53 0.75-0.79 1.13-0.52 0.75-1.04 1.51-1.55 2.28-1.28 1.93-2.49 3.84-3.62 5.73-0.2 0.33-0.4 0.66-0.59 1-0.04 0.07-0.09 0.15-0.13 0.22-0.19 0.33-0.38 0.65-0.56 0.97-0.37 0.64-0.72 1.27-1.07 1.9-0.28 0.5-0.55 1.01-0.82 1.52-0.26 0.49-0.52 0.97-0.77 1.46-1.29 2.5-2.41 4.92-3.37 7.22-0.19 0.46-0.38 0.91-0.55 1.36-0.18 0.45-0.35 0.89-0.51 1.33-0.17 0.44-0.32 0.87-0.47 1.3-0.58 1.64-1.05 3.19-1.4 4.65-0.01 0.04-0.02 0.07-0.03 0.1-0.01 0.03-0.02 0.06-0.03 0.09C20.14 66.3 16.87 58.53 16.87 50c0-0.91 0.04-1.81 0.12-2.7 0.02-0.35 0.05-0.69 0.09-1.03 0.61-5.33 2.49-10.26 5.35-14.5v-0.01c0.39-0.1 0.79-0.2 1.2-0.3 0.47-0.11 0.94-0.23 1.43-0.33 0.38-0.09 0.76-0.17 1.15-0.25 0.04-0.01 0.09-0.02 0.13-0.03 0.34-0.06 0.68-0.13 1.03-0.19 0.31-0.06 0.63-0.12 0.95-0.18 0.36-0.07 0.72-0.13 1.09-0.2 0.99-0.16 2.01-0.31 3.04-0.45 0.46-0.07 0.92-0.13 1.39-0.19 1.06-0.13 2.15-0.25 3.25-0.35 0.37-0.04 0.75-0.07 1.13-0.1 0.49-0.04 0.99-0.08 1.48-0.12 0.38-0.03 0.77-0.06 1.17-0.08 0.33-0.02 0.67-0.04 1.01-0.06 1.71-0.1 3.45-0.17 5.22-0.2C47.69 29.37 48.27 30.02 48.86 30.7z" fill="#000000" data-fill-palette-color="quaternary"></path><path d="M25.5 72.12c0.01-0.03 0.02-0.06 0.03-0.09-0.01 0.03-0.01 0.06-0.02 0.1C25.5 72.12 25.5 72.12 25.5 72.12z" fill="#000000" data-fill-palette-color="quaternary"></path><path d="M26.4 72.77c-0.02 0.08-0.04 0.16-0.05 0.23h-0.01C26.36 72.93 26.38 72.85 26.4 72.77z" fill="#000000" data-fill-palette-color="quaternary"></path><path d="M34.08 54.07c-0.58 1.09-1.14 2.16-1.67 3.21C32.93 56.22 33.5 55.15 34.08 54.07z" fill="#000000" data-fill-palette-color="quaternary"></path><path d="M35.36 50.26c-0.09-0.01-0.19-0.03-0.28-0.04 0.04-0.07 0.09-0.15 0.13-0.22C35.26 50.09 35.31 50.18 35.36 50.26z" fill="#000000" data-fill-palette-color="quaternary"></path><path d="M82.2 50c0 8.54-3.28 16.31-8.63 22.13-0.09-0.38-0.19-0.77-0.3-1.16-0.1-0.39-0.22-0.79-0.34-1.2-0.25-0.84-0.53-1.71-0.85-2.6-0.12-0.37-0.26-0.75-0.41-1.13-0.74-2.01-1.63-4.13-2.67-6.34-0.18-0.4-0.37-0.79-0.56-1.19-0.39-0.8-0.79-1.6-1.2-2.41-0.83-1.61-1.72-3.25-2.68-4.91-0.18-0.32-0.37-0.65-0.56-0.97-0.04-0.07-0.09-0.15-0.13-0.22-0.19-0.34-0.39-0.67-0.59-1-1.13-1.89-2.34-3.8-3.62-5.73-0.39-0.58-0.78-1.16-1.17-1.72-0.39-0.57-0.78-1.13-1.17-1.69-0.79-1.11-1.58-2.2-2.37-3.25-0.39-0.52-0.78-1.03-1.18-1.54-0.38-0.49-0.76-0.97-1.14-1.44-0.41-0.52-0.82-1.02-1.23-1.52-0.37-0.45-0.74-0.89-1.1-1.32-0.03-0.03-0.05-0.06-0.08-0.09 0.25-0.29 0.5-0.57 0.75-0.85 0.33-0.38 0.67-0.75 1.01-1.12h0.05c0.51 0.01 1.02 0.02 1.52 0.04 2.07 0.06 4.1 0.17 6.07 0.32 0.56 0.04 1.1 0.08 1.64 0.13 0.74 0.07 1.47 0.14 2.19 0.22 0.42 0.04 0.83 0.09 1.24 0.14 1.61 0.19 3.18 0.41 4.68 0.66 0.44 0.07 0.87 0.14 1.3 0.22 0.35 0.06 0.7 0.12 1.04 0.19 0.26 0.05 0.52 0.1 0.78 0.16 0.09 0.02 0.17 0.03 0.25 0.05 0.85 0.17 1.67 0.35 2.47 0.54 0.46 0.11 0.92 0.22 1.37 0.34 0.02 0.01 0.04 0.01 0.06 0.02 2.85 4.24 4.74 9.18 5.35 14.51 0.04 0.34 0.07 0.69 0.09 1.04C82.16 48.2 82.2 49.09 82.2 50z" fill="#000000" data-fill-palette-color="quaternary"></path><path d="M76.64 31.76c-0.02-0.01-0.04-0.01-0.06-0.02l-0.14-0.27C76.51 31.57 76.58 31.67 76.64 31.76z" fill="#000000" data-fill-palette-color="quaternary"></path><path d="M72.73 73c-3.09 3.12-6.81 5.62-10.95 7.29-0.37 0.16-0.74 0.3-1.11 0.44-3.47 1.25-7.22 1.94-11.13 1.94-3.91 0-7.66-0.69-11.13-1.94-0.38-0.14-0.75-0.29-1.12-0.44-4.14-1.67-7.86-4.17-10.94-7.29 0.01-0.07 0.03-0.15 0.05-0.23 0.37-1.56 0.87-3.25 1.5-5.04 0.2-0.58 0.42-1.17 0.65-1.77 0.17-0.44 0.34-0.89 0.53-1.35 0.15-0.37 0.3-0.74 0.46-1.12 0.09-0.22 0.19-0.45 0.28-0.68 0.2-0.45 0.4-0.9 0.6-1.35 0.46-1.02 0.94-2.07 1.47-3.13 0.17-0.35 0.34-0.7 0.52-1.05 0.53-1.05 1.09-2.12 1.67-3.21 0.49-0.91 1.01-1.83 1.54-2.76 0.06-0.1 0.12-0.21 0.18-0.31 0.13-0.22 0.25-0.44 0.38-0.66 0.07-0.11 0.13-0.22 0.2-0.34 1.2-2.04 2.5-4.11 3.87-6.18 0.38-0.57 0.75-1.12 1.14-1.68 1.03-1.5 2.08-2.97 3.13-4.38 0.28-0.37 0.56-0.74 0.84-1.1 0.23-0.31 0.46-0.61 0.7-0.9 0.37-0.49 0.75-0.97 1.14-1.45 0.34-0.42 0.68-0.84 1.03-1.26 0.43-0.53 0.87-1.06 1.31-1.57 1.39 1.63 2.78 3.36 4.17 5.18 0.28 0.36 0.56 0.73 0.84 1.1 1.05 1.41 2.1 2.88 3.13 4.38 0.39 0.56 0.76 1.11 1.14 1.68 0.91 1.38 1.79 2.76 2.64 4.12 0.2 0.33 0.4 0.66 0.59 0.98 0.22 0.36 0.44 0.72 0.65 1.08 0.06 0.12 0.13 0.23 0.2 0.34 0.12 0.22 0.25 0.44 0.38 0.66 0.06 0.1 0.12 0.21 0.18 0.31 1.8 3.14 3.39 6.22 4.75 9.15 0.15 0.33 0.3 0.66 0.44 0.99 1.07 2.37 1.97 4.64 2.69 6.76 0.15 0.43 0.29 0.85 0.41 1.26 0.14 0.41 0.26 0.82 0.37 1.22 0.12 0.39 0.22 0.78 0.33 1.15 0 0.01 0 0.02 0 0.02C72.55 72.25 72.64 72.63 72.73 73z" fill="#000000" data-fill-palette-color="quaternary"></path><g fill="#6936f5" data-fill-palette-color="quaternary"><path d="M22.87 30.57v0.01c-8.78 2.21-14.26 5.52-14.26 9.28 0 2.83 3.1 5.41 8.38 7.44 0.02-0.35 0.05-0.69 0.09-1.03-4.68-1.83-7.47-4.04-7.47-6.41 0-3.13 4.9-6.01 12.64-8.05 0.06-0.02 0.12-0.04 0.18-0.05 0.3-0.44 0.61-0.88 0.93-1.31C23.2 30.49 23.03 30.53 22.87 30.57zM75.95 30.51c-0.08-0.02-0.16-0.04-0.24-0.06 0.25 0.34 0.5 0.68 0.73 1.02l0.14 0.27c0.02 0.01 0.04 0.01 0.06 0.02 7.85 2.05 12.83 4.95 12.83 8.1 0 2.37-2.79 4.58-7.48 6.41 0.04 0.34 0.07 0.69 0.09 1.04 5.29-2.04 8.39-4.61 8.39-7.45C90.47 36.06 84.88 32.72 75.95 30.51z" fill="#000000" data-fill-palette-color="quaternary"></path></g><g fill="#6936f5" data-fill-palette-color="quaternary"><path d="M26.04 29.85v0.01c0.15-0.04 0.31-0.07 0.46-0.1C26.35 29.79 26.19 29.82 26.04 29.85zM23.43 30.43c0.84-0.21 1.71-0.4 2.61-0.57C25.14 30.04 24.28 30.23 23.43 30.43z" fill="#000000" data-fill-palette-color="quaternary"></path></g><g fill="#6936f5" data-fill-palette-color="quaternary"><path d="M72.21 15.92c-2.47-1.64-6.6-0.29-11.53 3.36 0.01 0 0.01 0.01 0.02 0.01 0.27 0.1 0.54 0.2 0.8 0.31 0.1 0.03 0.2 0.07 0.3 0.11 3.12-2.26 5.84-3.51 7.87-3.51 0.76 0 1.43 0.18 1.99 0.55 2.03 1.35 2.28 5.09 1.07 10.25 0.29 0.29 0.57 0.58 0.84 0.88C75.03 21.91 74.69 17.57 72.21 15.92zM35.21 50c-0.04 0.07-0.09 0.15-0.13 0.22 0.09 0.01 0.19 0.03 0.28 0.04C35.31 50.18 35.26 50.09 35.21 50zM37.29 80.29c-4.41 3.18-7.93 4.25-9.87 2.96-2.03-1.35-2.28-5.08-1.08-10.24 0 0 0 0 0.01-0.01 0.01-0.07 0.03-0.15 0.05-0.23-0.02 0.08-0.04 0.16-0.06 0.23-0.16-0.15-0.31-0.3-0.45-0.46-0.13-0.14-0.26-0.27-0.38-0.41l-0.01 0.01c-1.45 5.96-1.11 10.3 1.37 11.94 0.7 0.47 1.53 0.7 2.49 0.7 2.36 0 5.44-1.38 9.05-4.05C38.03 80.59 37.66 80.44 37.29 80.29z" fill="#000000" data-fill-palette-color="quaternary"></path></g><g fill="#6936f5" data-fill-palette-color="quaternary"><path d="M26.04 29.85v0.01c0.15-0.04 0.31-0.07 0.46-0.1C26.35 29.79 26.19 29.82 26.04 29.85zM73.57 72.13c-0.27 0.29-0.55 0.59-0.84 0.87 1.21 5.16 0.96 8.9-1.07 10.25-1.95 1.29-5.46 0.21-9.88-2.96-0.37 0.16-0.74 0.3-1.11 0.44 3.61 2.67 6.69 4.05 9.04 4.05 0.96 0 1.8-0.23 2.5-0.7C74.68 82.43 75.03 78.09 73.57 72.13z" fill="#000000" data-fill-palette-color="quaternary"></path><path d="M38.4 19.28c-0.38 0.13-0.75 0.28-1.12 0.43-3.12-2.26-5.84-3.51-7.87-3.51-0.77 0-1.43 0.18-1.99 0.55-2.03 1.35-2.28 5.09-1.07 10.25-0.3 0.29-0.58 0.58-0.84 0.88-1.47-5.97-1.12-10.31 1.36-11.96C29.34 14.28 33.47 15.63 38.4 19.28z" fill="#000000" data-fill-palette-color="quaternary"></path></g><g fill="#6936f5" data-fill-palette-color="quaternary"><path d="M25.51 72.13c0.01-0.04 0.01-0.07 0.02-0.1-0.01 0.03-0.02 0.06-0.03 0.09 0 0.01 0 0.01 0 0.02 0.13 0.13 0.25 0.27 0.39 0.4C25.76 72.4 25.63 72.27 25.51 72.13zM32.41 57.28c0.53-1.05 1.09-2.12 1.67-3.21C33.5 55.15 32.93 56.22 32.41 57.28zM35.21 50c-0.04 0.07-0.09 0.15-0.13 0.22 0.09 0.01 0.19 0.03 0.28 0.04C35.31 50.18 35.26 50.09 35.21 50z" fill="#000000" data-fill-palette-color="quaternary"></path></g></g></svg></g></svg></g></svg></g></svg></g><g></g></svg></g><defs></defs></svg><rect width="395.52" height="215.30729124070444" fill="none" stroke="none" visibility="hidden"></rect></g></svg></g></svg>